<svg id="Layer_1" data-name="Layer 1" xmlns="http://www.w3.org/2000/svg" viewBox="0 0 841.73 59.74"><defs><style>.cls-1{fill:#ffb63b;}.cls-2{fill:#006e77;}</style></defs><rect class="cls-1" y="-0.26" width="841.73" height="60"/><path class="cls-1" d="M742.55,6.87c-7,.39-14-.73-21.07-.79C714,6,706.54,5,699,4.8s-14.85.12-22.27.27c-29.19.58-58.4,0-87.59.59-27.4.53-54.88.9-82.28.24-13.83-.34-27.58-1.24-41.42-1.13-14.34.11-28.66.39-43,.39-28,0-56,0-84,1.46-28.54,1.45-57.16.7-85.72.48-27.64-.21-55.25.85-82.89.85-6.94,0-13.8.48-20.73.79-6.26.28-12.38-.33-18.62-.67-10.7-.58-21.51-.34-32.27-.2.29,1.44.57,2.87.72,4.34.39,3.66-.66,7.27-1.27,10.86-1.45,8.48,1.31,17,.48,25.61a4,4,0,0,1-1.27,2.62c14.59-.31,29.23-1.72,43.8-1.22,14.95.51,29.82,1.11,44.78,1.12q43.81,0,87.67,1c13.73.3,27.37,1.82,41.11,1.82H357.1c28.85,0,57.55-.69,86.36-1.92,14.15-.61,28.32-.83,42.49-.89a24.66,24.66,0,0,1,8.44,0c11.16,0,22.33,0,33.49,0,16,0,32,.37,47.92.63l.68-.38a16.6,16.6,0,0,1,3.26.45c10.83.16,21.66.24,32.5.1,27.83-.38,55.63-.8,83.46-.8,15.81,0,31.6.13,47.4.26a4.06,4.06,0,0,1-.59-2.92C744.75,34.83,744.39,20.68,742.55,6.87ZM399.43,47.73c-5,0-10-.14-15-.14-9,0-18,0-27.05.06-4.86,0-9.73,0-14.59.05-2.47,0-4.94.37-7.42.38s-5.17-.29-7.76-.29c-6.09,0-12.18.14-18.27.18q-15.56.12-31.11.18-15.27.06-30.53,0c-3.83,0-7.65-.3-11.48-.28-5.5,0-11,.2-16.5.33-5,.12-10.09.1-15.14,0s-10.07-.56-15.11.48c-1.63.33-3.48-.51-5.23-.58-5.64-.21-11.3-.1-16.92-.52-4.85-.36-9.6.19-14.4.49-4,.25-8.08-.09-12.11,0-4.2.12-8.38.54-12.57.66-1.62,0-3.25-.54-4.88-.56-6.51-.08-13,0-19.54-.07a12.44,12.44,0,0,1-1.32-.18c1.47-2.31-2-5.28,1.29-7.37,1.45,1.88,1.43,5.18,4.72,5,2.31-4.14,1-7.65-1.66-11.09,3.23-1.07,6.38-1.83,9.3-3.14,6.36-2.85,12.18-1.54,17.91,1.68,1.44.81,2.94,1.49,4.57,2.31-2.78,2.72-2.48,6.37-2.53,10.14,4.43-1.18,5.32-2,6-5,2.8,1,4.27,4.84,8.21,4.15.13-1.47.23-2.67.34-4-1.34-1.42-2.7-2.87-4.28-4.53,3.35-1.35,6.4-2.42,9.3-3.79,2-1,3.81-2.36,5.75-3.47,3.2-1.81,3.22-1.78,7.25-1.69a12.92,12.92,0,0,1,.17,3.21c-.71,3.47,1.18,6.07,2.89,8.61,2.45,3.65,8.49,5.32,12.62,3.9,2.66-.9,5.13-2,6.89-4.31,1.24-1.59,2.48-3.19,2.2-5.43A6,6,0,0,1,195,28.5c1.1.85,2.14,1.63,3.14,2.45s2,1.75,3.06,2.63a53.92,53.92,0,0,0-3.83,5.29A55.47,55.47,0,0,0,194.79,45c3.27.59,5.55-1.19,8.48-6.22,2.08,2.29,3.28,5.72,7.42,5.73a15.37,15.37,0,0,0-4.56-11.09c3.68-1.17,7.22-2.09,10.62-3.39,6.71-2.58,12.76-1.05,18.64,2.45,1.62,1,3.41,1.65,5.37,2.59-4.11,2.26-4.68,6.34-6,10.35C238.14,45,241,44,243,41.18L248.77,46c1.61-4.39-.67-7.27-2.4-10.49,1.85-.67,3.81-1.34,5.76-2.08a7.09,7.09,0,0,0,2.36-1.19,19.67,19.67,0,0,1,7.23-4,10.13,10.13,0,0,1,7.12-.23c.11,3.83.48,7.85,3.74,10.47a15.25,15.25,0,0,0,6.81,3.46c7.19,1,10.84-2,14.95-11.55l5.69,3c-.95,4.08-5.83,6.9-3.47,11.93,2.47-.87,5.18-1.15,6.13-4,1.13,1.26,2.08,2.3,3,3.35.78.89,1.83,1.2,2.68.45a3.36,3.36,0,0,0,.78-2.3c0-3.43-1.89-6-4.44-8.65C306,33.71,307,33.33,308,33c3.42-1.07,7.08-1.39,10.2-3.43a4.68,4.68,0,0,1,2.28-.31,19.25,19.25,0,0,0,3.72,0c5.59-1.33,9.12,2.7,13.31,5,.33.18.43.75.5.88-1.9,2.87-3.67,5.55-5.55,8.41a11.83,11.83,0,0,0,8.5-4l5.19,5c1.37-2,1.27-2.55-1.31-8.82,4.25-1,7.88-3.37,11.27-5.94,3.66-2.78,7.65-2.87,12-2.53a11.11,11.11,0,0,1,.28,2c-.11,2.43.91,4.42,1.82,6.63,2.48,6,7.42,6.33,12.62,6.16,1.33,0,2.66-1.06,3.93-1.75.57-.31.91-1.18,1.48-1.32,2.41-.61,3.16-2.83,3.43-4.55.77-4.95.62-9.89-3.09-13.95-2.73-3-6.3-3.32-9.92-2.92s-7.31,1.58-9,5.53a2.72,2.72,0,0,1-3.24,1.74c-1.56-.23-3.14-.25-5-.38,1.13-2.62,3.33-4.84,2.63-8.36l-7.63,4.7C355,19.59,354,17,350.74,17.33a13.17,13.17,0,0,0,2.85,7.19c.61.86,1.13,1.78,1.69,2.67-2.56,1.54-4.83,2.74-6.91,4.23A9.91,9.91,0,0,1,343,33.13a4.54,4.54,0,0,1-3.08-.91c-4.5-4.1-9.5-6.81-15.8-6.43a14.33,14.33,0,0,1-1.88-.18c1.06-2.9,3.88-5.29,1.56-8.73-2.69-.44-3.82,1.84-5.12,3.63-1.5.21-2-.72-2.77-1.63-1.73-2.12-3.49-2.55-5.78-1.64,0,4,3,6.51,5.19,9.65a6.7,6.7,0,0,1-1.42,1.19c-4,1.84-8.11,3.46-12.64,2.38a9.31,9.31,0,0,1-3.92-1.78,29.25,29.25,0,0,1-5.76-6.07c-3-4.82-7.6-5.57-12.56-5.74a3.23,3.23,0,0,0-1.56.59,31.76,31.76,0,0,0-8.16,7.19h-4A3.48,3.48,0,0,0,264,25l0-.73c.62-2.3,1-4.37,1.47-6.51-3.38.28-3.54.42-5.16,4.1-3.3-1.07-6.16-3.76-10.35-3.2a12.23,12.23,0,0,0,7.75,7.93c-2.76,1.77-4.7,3.81-7.56,4.76A15.65,15.65,0,0,1,238,30.47c-2-.95-3.89-2.25-5.92-3.21a38.52,38.52,0,0,0-3.79-1.09,30.62,30.62,0,0,1-2.95-1.38c3-2.61.69-5.15.9-7.95-3.18.68-3.87,4.05-6.72,5l-6.31-4.67c-.47,3.79-.63,6.79,2.82,9.1a25.5,25.5,0,0,1-14.24,4c-2.63-2.16-5.49-4.4-8.21-6.86-3.74-3.38-7.91-6.12-13.61-5.14a14.43,14.43,0,0,0-9.48,5.95l-5.9.53a39.55,39.55,0,0,1,1.46-5.62,2,2,0,0,0-.64-2.65c-1.07-.74-1.81.06-2.45,1-1.15,1.71-2.4,3.34-3.54,4.9l-4.1-5.57c-2.51,1.52-2,3.68-2.25,5.77-.28,2.61,2.17,3.56,2.8,5.67-3.51,2.94-7.75,4.14-12.19,4.83a3.7,3.7,0,0,1-3.5-1.17c-1.41-1.35-3.68-1.84-5.61-2.62-2.41-1-4.85-1.84-7.26-2.79a20.7,20.7,0,0,1-2-1.12c1.78-2.8,5.27-4.35,4.74-8.47-3.45,1.33-7.5,1-8.73,5.47l-7.35-4.78c-2.44,1.2-.41,3.28-1.23,4.69,1.26.69.89,3.25,3.32,2.74.61-.13,1.44.82,2.71,1.61-1.83.53-2.88,1.09-3.92,1.09a10.12,10.12,0,0,0-5.31,1.88,8.67,8.67,0,0,1-6.93.7c-.42-5.4-.84-10.65-1.27-16.16,2.43,0,4.46,0,6.49,0,3.25-.08,6.51-.34,9.76-.3,3.53,0,7.06.41,10.59.49a45.26,45.26,0,0,0,7.37-.26,25.09,25.09,0,0,1,10.31.66c1.32.37,2.86,0,4.29-.07,5.12-.31,10.24-.67,15.36-.95,3.81-.22,7.63-.41,11.45-.46,3.14,0,6.29.15,9.43.23,9.42.24,18.84.57,28.26.67,4.71.05,9.43-.44,14.15-.43,4.38,0,8.76.44,13.14.52s8.53-.13,12.8-.1c5.87,0,11.75.18,17.62.22a20,20,0,0,0,3.25-.46c.43-.06.9-.34,1.28-.24,5,1.27,10,.23,15.07,0,4.29-.18,8.62.17,12.93.26,6.52.15,13,.39,19.56.38,5.64,0,11.29-.52,16.92-.42,6.87.12,13.73.72,20.61,1,2.33.08,4.67-.41,7-.45,4.49-.07,9-.07,13.49,0,7,.14,13.93.4,20.89.62.17,0,.33.22.65.45a7.6,7.6,0,0,1-.83.93c-4.31,3.5-5.65,8.5-6.49,13.59-.28,1.73.59,3.67,1,5.49a44.8,44.8,0,0,0,4.43,10.74c.32.61,1.41.81,2.65,1.46C402.62,47.74,401,47.75,399.43,47.73ZM179.61,25c-.16-1-.22-2.32,1.12-2.35A2.93,2.93,0,0,1,183,24.13a18.91,18.91,0,0,1,.75,4.24l4.74.37c.87,3-.45,4.62-3.33,4.36-1.41-.13-1.94.41-1.7,1.76.35,2,0,2.69-1.49,3-1.74.38-2.74-.26-3.06-2.13-.22-1.32-.28-2.68-.41-4-1-.38-2.13-.53-2.77-1.18-.37-.36.09-1.54.18-2.36,1.75-.5,3-.76,4.61-1.09A10.05,10.05,0,0,1,179.61,25Zm99.31-.69A2.65,2.65,0,0,1,280,22.15a3,3,0,0,1,2.47-.09c.37.16.37,1.33.41,2a7.35,7.35,0,0,1-.23,1.6c1.68,1.25,2.44,3.45,4.92,2.06.09,1.51.15,2.6.22,3.83-.83.21-1.47.34-2.1.54-1.42.44-2.78.89-2.89,2.79a3.28,3.28,0,0,1-.85,1.81,2,2,0,0,1-1.47.5c-.29,0-.74-.56-.8-.91-.24-1.44-.35-2.89-.53-4.55-1.94.48-3.62.25-4.82-1.48-.2-1.69,1-2.48,2.3-2.77C278.51,27.13,279.45,26.49,278.92,24.34ZM383.19,35.23c.11.64-1.21,1.51-2,2.47l-3-.73c.78-3.11.3-4-2.35-4.31-1.7-.2-2.42-.95-2.12-2.65.15-.88.24-1.77.38-2.84l3.56-.77c.18-1.23.36-2.42.6-4l3.41.86c.29,1.84.52,3.37.79,5.11,1.46-.12,2.72-1.7,4,0a2.55,2.55,0,0,1,.13,3.38C384.72,32.68,382.79,32.78,383.19,35.23Zm48.24.92c1.11,1.5,1.29,3.78.36,4.58-1.63,1.4-4.55,1.7-6,.58-.75-.59-1.45-1.24-2.2-1.89-2.23,1.91-2,6.27-6.27,5.26-2.14-1.81-.69-4.64-1.73-7-1.84,2.68-4.35,3.13-7.1,3-.93-3-1.32-2.33,1.92-6.68l-6.25-1c.65-4.79.65-4.79,5.15-5.35-.43-1.9-.85-3.77-1.32-5.87,2.51-4.35,3.76-4.2,8.55,1.76-.18-2-.35-3.46-.42-4.92,0-1.05.1-2.09,1.46-2.26,1.16-.15,2.34-.13,2.95,1.09.49,1,.81,2,1.37,3.52,1-.72,1.78-1.22,2.49-1.83,2.22-1.93,3.56-1.78,5.47.67.38,2.18-.14,3.54-1.57,4.57-.43.31-.62.93-1.13,1.74l5.27.58c1.29,3.93,1.19,4.16-3,6.84C430.15,34.42,430.79,35.28,431.43,36.15ZM737.57,46.92l-7.19.45c-4,.24-8.06.73-12.08.67-6.4-.1-12.78-.66-19.18-.83-5.5-.16-11-.08-16.52-.06-3.15,0-6.31.2-9.46.17-5.64,0-11.29-.31-16.94-.25-10.73.1-21.45.48-32.18.54-11.64.06-23.27.39-34.91-.09-5.06-.21-10.14-.11-15.21,0-2.9.09-5.8.54-8.69.89-2.25.26-4.47.55-6.55-.74a2.16,2.16,0,0,0-1.31-.23c-3.6.38-7.21.82-10.82,1.2a3.14,3.14,0,0,1-1.95-.15c-1.86-1.37-3.93-.65-5.87-.69-5.73-.14-11.48,0-17.22,0-1.46,0-2.94-.17-4.39-.06-3.61.28-7.21.75-10.82,1-1.18.08-2.39-.46-3.59-.47q-13.56-.09-27.11-.06-18,0-35.95.12H434a19,19,0,0,1,2.46-2.73,10,10,0,0,0,4-6.66c.67-4.46,2.08-8.74.92-13.61-1-4.18-3.6-6.76-6-10.28,1.65-.11,3.24-.27,4.83-.34,7.18-.27,14.36-.58,21.54-.76,3.09-.08,6.19.19,9.28.14,3.57,0,7.15-.45,10.71-.38,3.11,0,6.21.54,9.31.84a10.66,10.66,0,0,0,1.26.08c6.52-.14,13-.31,19.57-.45,7.93-.17,15.87-.35,23.81-.48,4.15-.07,8.31.13,12.45-.11,8-.48,16,.08,24-.13s15.82-.44,23.73-.4c6.72,0,13.45.42,20.17.64,7.85.27,15.69-.07,23.54-.1,5.47,0,10.94.09,16.42,0,8.31,0,16.63-.22,25-.28,5.17,0,10.36-.27,15.5.18,3.35.29,6.6-.35,9.91-.13s6.77.13,10.15.06,6.75-.44,10.12-.42,7,.35,10.74.56a22.19,22.19,0,0,1,.26,2.51c0,4,0,7.92,0,11.88,0,1.47-.58,2.07-2.05,2.54-4.74,1.53-9,0-13.23-1.72-1.32-.51-2.6-1.13-4.69-2.06,6.12-.85,8.1-5.51,11.21-8.66-.42-2-1.56-2.25-2.88-1.72-2.68,1.08-5.61,1.74-7.55,4.57l-5.66-4.67c-1.89,1.84-2.24,4.09-1,6,.49.74,1,1.44,1.57,2.16a1.7,1.7,0,0,1,0,1.09,51.23,51.23,0,0,0-9.78,2.09,23.61,23.61,0,0,0-5.72,3.43c-3.3,2.38-8.46,1.52-12.58-1.18l-4.2-2.73c2.37-3.24,5.39-6.28,7.06-10.5-4.35-.68-6.2,2.41-8.54,4.7l-5.53-4.93c-1.68,3.44,1.28,5.72,1.32,8.67l-5.92-.75c-.85-3-3.23-4.33-6.13-5.73-5.55-2.7-10.12-.5-14.84,1.75A4,4,0,0,0,647,22.08c-2,3.82-5.48,5.89-9,7.94-3.22,1.9-6.52,1.23-9.73-.2-2.3-1-4.59-2.11-7-3.2,4.11-1.87,4.88-6.08,6.35-9.85-1.93-1.44-3.66-1.28-5.36.62-1.26,1.4-2.45,2.86-3.81,4.46A12.57,12.57,0,0,1,617,19.34c-.83-2.77-3.46-2.08-5.32-2.83-.09,0-1,1.2-.91,1.66a46.39,46.39,0,0,0,1.89,5c.34.8.77,1.57,1.34,2.7-5-.71-8.57,1.93-12.28,3.94-6.92,3.75-13.84,3.09-19.68-2.36,2.3-3.52,5.65-6.58,5.89-11.73-.28-.6-1-1-2.09,0-1.93,1.68-3.83,3.39-5.86,5.19l-4.72-5.14c-1.61.42-2.06,1.13-1.31,2.71a42.89,42.89,0,0,1,1.77,5.14h-5.62l-6.63-5.85c-.25-.22-.53-.59-.79-.58-3.1.08-6.35-1.07-9.25.48a17.42,17.42,0,0,0-7,6.4c-2.26,3.68-5.87,6.6-11.11,6.24-4.11-.28-8.26.09-11.94-2.83,2.72-2.61,6-4.88,6-9.64-2.59-.47-4.6.77-6.53,2.24-.86.67-1.66,1.41-2.43,2.07-2.64-.91-3.1-5.06-6.78-3.78-.86,2.34.52,4.16,1.74,6.22a4.44,4.44,0,0,1-1.27.54c-3.93.17-7.13,2.18-10.54,3.85a49.56,49.56,0,0,1-10.17,3.45c-1.22.29-2.83-.54-4.11-1.17a56.67,56.67,0,0,1-4.88-2.94c1.33-3.63,2.56-7,3.84-10.49-3.66-1.85-4.46,2.1-6.57,3-2.13-1.19-3.5-3.93-7-2.79.61,1.48,1.13,2.84,1.74,4.16.43.91,1,1.76,1.5,2.63.23.39,0,.52-.17.65l.21-.37c-1.65,0-3.76.11-5.84-.09a2.31,2.31,0,0,1-1.54-1.54c-.41-2.53-2.36-3.36-4.23-4.42A11.76,11.76,0,0,0,459,17.13c-5,.48-8.24,3.11-10.87,7-1.64,2.46-1.5,5-.88,7.72.87,3.84,2.33,7.08,5.83,9.39,3.69,2.44,7.36,2.77,11.1.71a18.25,18.25,0,0,0,7.05-6.59c1.42-2.36.58-4.86,1.52-7.4.72-.13,1.75-.68,2.4-.38,2.8,1.31,5.95,1.43,8.62,3.48s6.18,3,9.52,4.48a15.37,15.37,0,0,0-1.82,3.07c-.38,1.14-.18,2.46-.4,3.68-.28,1.47-.22,2.68,1.68,3.26,2.08-1.94,3.19-4.56,4.32-7.32,2.77,1.43,4,5,7.59,5.39,1.85-1.8.82-4.06.07-5.61s-2.83-2.75-4.74-4.47c4.53-2,8.66-4.22,13.06-5.56,1.85-.56,4.46.32,6.37,1.26,4.75,2.37,9.54,4.31,15.21,3.87-.16.65-.13,1.22-.38,1.41-2.5,2-2.47,5.16-3.84,7.67a2.38,2.38,0,0,0,.54,2,1.84,1.84,0,0,0,1.76-.12c1.46-1.2,2.78-2.57,4.41-4.13l5.6,4.81c2.23-2.4,1.94-4.93-3.54-11.7L544.5,30c.47,1.38.9,3,1.57,4.53.8,1.8,1.11,4,3.11,5,3.5,1.71,7.05,3.33,11.14,2.19,1.39-.38,2.82-.58,4.38-.89,3.47-3.93,6.17-8.47,5.84-14.53a13,13,0,0,1,2.86.43,70.23,70.23,0,0,1,9.91,5.45c2.49,1.54,5.37,2.44,8.43,3.77-.12,2.52-4.18,5.29-.53,8.85l4.53-5.65a33.77,33.77,0,0,1,3.78,2.27c2.33,1.86,2.87,2,5.61.35-1.06-3.91-.94-3.94-5.61-7.63C603,32.31,606.34,30,610,28.81c2.93-1,6.22-.16,9.29.68,2.77.76,5.6,1.25,7.65,3.62.4.45,1.5.28,2.28.39l4,.52c-2.64,3.17-4.57,6.15-2.66,10,2.39.63,3-1.23,3.73-2.63,2.25-4.2,2.2-4.23,5.44-.49a6.35,6.35,0,0,0,3.94,2.45c1.44-4.7-1.89-7.4-4.37-10.31l6.27-5a29.34,29.34,0,0,0,.07,5.24,10.77,10.77,0,0,0,1.8,4.23,9.73,9.73,0,0,0,3.72,3.19,21.62,21.62,0,0,0,7.13,1.75c1.63.08,3.38-.88,5-1.61.88-.41,1.46-1.43,2.3-2,3.21-2.12,4.4-5.21,4.52-8.89a21.07,21.07,0,0,1,.4-2.65A24.1,24.1,0,0,1,681.76,31c3,1.7,5.72,4,9.41,4-.46,2.37-.71,4.47-1.31,6.47s.35,2.43,1.83,2.65l4.76-6.53,6.19,5.07,5.28.67c-.1-5-3.21-7.56-6.9-9.68,2.22-3.35,5.68-3.21,8.85-4.1,4-1.12,7.45.1,10.67,1.85a17.32,17.32,0,0,0,4.62,1.77c2.05.44,4.18.53,6.76.82-1.61,2.17-3,4-4.29,5.81.37,1.39.71,2.67,1,3.89,4,2,4.2-3.4,7.12-3.58C738.58,41.79,737.64,44.33,737.57,46.92ZM652.13,32.43a5,5,0,0,1-1.72-2.16,1.84,1.84,0,0,1,1.23-2.44c.31-.12.56-.4.87-.5,1.77-.57,3.1-1.39,3.52-3.51.16-.78,1.57-1.46,2.54-1.85.31-.12,1,.84,1.6,1.3a6.2,6.2,0,0,0,.07,1.22C661,28,661,28,664.64,28c.77,2.48.54,3.51-1.56,4.21a7.49,7.49,0,0,0-4.65,4A3.35,3.35,0,0,1,657,37.59c-1.74.88-2.82.21-2.85-1.75,0-.88.13-1.77.2-2.74A6.83,6.83,0,0,1,652.13,32.43Zm-98.92-.3c-1.63,0-2.35-.5-2-2.18.36-1.88,1.38-2.63,3-2.14.42.13.78.47,1.2.61a5.43,5.43,0,0,0,1.26,0A6.13,6.13,0,0,0,557,26.3c-.69-3.32-.15-4,3.66-3.66-.24,1.19-.47,2.33-.77,3.78l5.34.89c-.23,1.58-.43,3-.65,4.39l-3.5.33c-1.47,1.52.48,4.46-2.36,5.23a23.44,23.44,0,0,1-3.63-.69c.52-1.2.89-2.06,1.43-3.33A12,12,0,0,0,553.21,32.13ZM456.39,25a2,2,0,0,1,2-2.24c1.21,0,2.06.52,2,2.08s1,2.14,2.35,2.33a6.25,6.25,0,0,1,4.59,2.93c-.16,1.86-1.6,2-2.87,2.41-2.65.4-2.56,2.52-3.44,3.83-.65,1-1.06,2.34-2.36,1.76-.79-.35-1.25-1.64-1.64-2.59a8.07,8.07,0,0,1-.25-2.27,12,12,0,0,0-2.71-.71,1.6,1.6,0,0,1-1.77-1.57,2.71,2.71,0,0,1,1.16-1.87,14,14,0,0,1,3-1.13C456.39,26.92,456.4,25.94,456.39,25Z"/><path class="cls-2" d="M494.39,51.16a24.66,24.66,0,0,0-8.44,0Z"/><path class="cls-2" d="M264.14,24.05c.42-2.07.84-4.14,1.27-6.28-3.38.28-3.54.42-5.16,4.1-3.3-1.07-6.16-3.76-10.35-3.2a12.23,12.23,0,0,0,7.75,7.93c-2.76,1.77-4.7,3.81-7.56,4.76A15.65,15.65,0,0,1,238,30.47c-2-.95-3.89-2.25-5.92-3.21a38.52,38.52,0,0,0-3.79-1.09,30.62,30.62,0,0,1-2.95-1.38c3-2.61.69-5.15.9-7.95-3.18.68-3.87,4.05-6.72,5l-6.31-4.67c-.47,3.79-.63,6.79,2.82,9.1a25.5,25.5,0,0,1-14.24,4c-2.63-2.16-5.49-4.4-8.21-6.86-3.74-3.38-7.91-6.12-13.61-5.14a14.43,14.43,0,0,0-9.48,5.95l-5.9.53a39.55,39.55,0,0,1,1.46-5.62,2,2,0,0,0-.64-2.65c-1.07-.74-1.81.06-2.45,1-1.15,1.71-2.4,3.34-3.54,4.9l-4.1-5.57c-2.51,1.52-2,3.68-2.25,5.77-.28,2.61,2.17,3.56,2.8,5.67-3.51,2.94-7.75,4.14-12.19,4.83a3.7,3.7,0,0,1-3.5-1.17c-1.41-1.35-3.68-1.84-5.61-2.62-2.41-1-4.85-1.84-7.26-2.79a20.7,20.7,0,0,1-2-1.12c1.78-2.8,5.27-4.35,4.74-8.47-3.45,1.33-7.5,1-8.73,5.47l-7.35-4.78c-2.44,1.2-.41,3.28-1.23,4.69,1.26.69.89,3.25,3.32,2.74.61-.13,1.44.82,2.71,1.61-1.83.53-2.88,1.09-3.92,1.09a10.12,10.12,0,0,0-5.31,1.88,8.67,8.67,0,0,1-6.93.7c-.42-5.4-.84-10.65-1.27-16.16,2.43,0,4.46,0,6.49,0,3.25-.08,6.51-.34,9.76-.3,3.53,0,7.06.41,10.59.49a45.26,45.26,0,0,0,7.37-.26,25.09,25.09,0,0,1,10.31.66c1.32.37,2.86,0,4.29-.07,5.12-.31,10.24-.67,15.36-.95,3.81-.22,7.63-.41,11.45-.46,3.14,0,6.29.15,9.43.23,9.42.24,18.84.57,28.26.67,4.71.05,9.43-.44,14.15-.43,4.38,0,8.76.44,13.14.52s8.53-.13,12.8-.1c5.87,0,11.75.18,17.62.22a20,20,0,0,0,3.25-.46c.43-.06.9-.34,1.28-.24,5,1.27,10,.23,15.07,0,4.29-.18,8.62.17,12.93.26,6.52.15,13,.39,19.56.38,5.64,0,11.29-.52,16.92-.42,6.87.12,13.73.72,20.61,1,2.33.08,4.67-.41,7-.45,4.49-.07,9-.07,13.49,0,7,.14,13.93.4,20.89.62.17,0,.33.22.65.45a7.6,7.6,0,0,1-.83.93c-4.31,3.5-5.65,8.5-6.49,13.59-.28,1.73.59,3.67,1,5.49a44.8,44.8,0,0,0,4.43,10.74c.32.61,1.41.81,2.65,1.46-2.14,0-3.74,0-5.33,0-5,0-10-.14-15-.14-9,0-18,0-27.05.06-4.86,0-9.73,0-14.59.05-2.47,0-4.94.37-7.42.38s-5.17-.29-7.76-.29c-6.09,0-12.18.14-18.27.18q-15.56.12-31.11.18-15.27.06-30.53,0c-3.83,0-7.65-.3-11.48-.28-5.5,0-11,.2-16.5.33-5,.12-10.09.1-15.14,0s-10.07-.56-15.11.48c-1.63.33-3.48-.51-5.23-.58-5.64-.21-11.3-.1-16.92-.52-4.85-.36-9.6.19-14.4.49-4,.25-8.08-.09-12.11,0-4.2.12-8.38.54-12.57.66-1.62,0-3.25-.54-4.88-.56-6.51-.08-13,0-19.54-.07a12.44,12.44,0,0,1-1.32-.18c1.47-2.31-2-5.28,1.29-7.37,1.45,1.88,1.43,5.18,4.72,5,2.31-4.14,1-7.65-1.66-11.09,3.23-1.07,6.38-1.83,9.3-3.14,6.36-2.85,12.18-1.54,17.91,1.68,1.44.81,2.94,1.49,4.57,2.31-2.78,2.72-2.48,6.37-2.53,10.14,4.43-1.18,5.32-2,6-5,2.8,1,4.27,4.84,8.21,4.15.13-1.47.23-2.67.34-4l-4.28-4.53c3.35-1.35,6.4-2.42,9.3-3.79,2-1,3.81-2.36,5.75-3.47,3.2-1.81,3.22-1.78,7.25-1.69a12.92,12.92,0,0,1,.17,3.21c-.71,3.47,1.18,6.07,2.89,8.61,2.45,3.65,8.49,5.32,12.62,3.9,2.66-.9,5.13-2,6.89-4.31,1.24-1.59,2.48-3.19,2.2-5.43A6,6,0,0,1,195,28.5c1.1.85,2.14,1.63,3.14,2.45s2,1.75,3.06,2.63a53.92,53.92,0,0,0-3.83,5.29A55.47,55.47,0,0,0,194.79,45c3.27.59,5.55-1.19,8.48-6.22,2.08,2.29,3.28,5.72,7.42,5.73a15.37,15.37,0,0,0-4.56-11.09c3.68-1.17,7.22-2.09,10.62-3.39,6.71-2.58,12.76-1.05,18.64,2.45,1.62,1,3.41,1.65,5.37,2.59-4.11,2.26-4.68,6.34-6,10.35C238.14,45,241,44,243,41.18L248.77,46c1.61-4.39-.67-7.27-2.4-10.49,1.85-.67,3.81-1.34,5.76-2.08a7.09,7.09,0,0,0,2.36-1.19,19.67,19.67,0,0,1,7.23-4,10.13,10.13,0,0,1,7.12-.23c.11,3.83.48,7.85,3.74,10.47a15.25,15.25,0,0,0,6.81,3.46c7.19,1,10.84-2,14.95-11.55l5.69,3c-.95,4.08-5.83,6.9-3.47,11.93,2.47-.87,5.18-1.15,6.13-4,1.13,1.26,2.08,2.3,3,3.35.78.89,1.83,1.2,2.68.45a3.36,3.36,0,0,0,.78-2.3c0-3.43-1.89-6-4.44-8.65C306,33.71,307,33.33,308,33c3.42-1.07,7.08-1.39,10.2-3.43a4.68,4.68,0,0,1,2.28-.31,19.25,19.25,0,0,0,3.72,0c5.59-1.33,9.12,2.7,13.31,5,.33.18.43.75.5.88-1.9,2.87-3.67,5.55-5.55,8.41a11.83,11.83,0,0,0,8.5-4l5.19,5c1.37-2,1.27-2.55-1.31-8.82,4.25-1,7.88-3.37,11.27-5.94,3.66-2.78,7.65-2.87,12-2.53a11.11,11.11,0,0,1,.28,2c-.11,2.43.91,4.42,1.82,6.63,2.48,6,7.42,6.33,12.62,6.16,1.33,0,2.66-1.06,3.93-1.75.57-.31.91-1.18,1.48-1.32,2.41-.61,3.16-2.83,3.43-4.55.77-4.95.62-9.89-3.09-13.95-2.73-3-6.3-3.32-9.92-2.92s-7.31,1.58-9,5.53a2.72,2.72,0,0,1-3.24,1.74c-1.56-.23-3.14-.25-5-.38,1.13-2.62,3.33-4.84,2.63-8.36l-7.63,4.7C355,19.59,354,17,350.74,17.33a13.17,13.17,0,0,0,2.85,7.19c.61.86,1.13,1.78,1.69,2.67-2.56,1.54-4.83,2.74-6.91,4.23A9.91,9.91,0,0,1,343,33.13a4.54,4.54,0,0,1-3.08-.91c-4.5-4.1-9.5-6.81-15.8-6.43a14.33,14.33,0,0,1-1.88-.18c1.06-2.9,3.88-5.29,1.56-8.73-2.69-.44-3.82,1.84-5.12,3.63-1.5.21-2-.72-2.77-1.63-1.73-2.12-3.49-2.55-5.78-1.64,0,4,3,6.51,5.19,9.65a6.7,6.7,0,0,1-1.42,1.19c-4,1.84-8.11,3.46-12.64,2.38a9.31,9.31,0,0,1-3.92-1.78,29.25,29.25,0,0,1-5.76-6.07c-3-4.82-7.6-5.57-12.56-5.74a3.23,3.23,0,0,0-1.56.59,31.76,31.76,0,0,0-8.16,7.19c-1.11,0-2.56,0-4.46-.15A2.15,2.15,0,0,1,264.14,24.05Z"/><path class="cls-2" d="M478.35,25c-2.09,0-4.2.11-6.28-.09a2.31,2.31,0,0,1-1.54-1.54c-.41-2.53-2.36-3.36-4.23-4.42A11.76,11.76,0,0,0,459,17.13c-5,.48-8.24,3.11-10.87,7-1.64,2.46-1.5,5-.88,7.72.87,3.84,2.33,7.08,5.83,9.39,3.69,2.44,7.36,2.77,11.1.71a18.25,18.25,0,0,0,7.05-6.59c1.42-2.36.58-4.86,1.52-7.4.72-.13,1.75-.68,2.4-.38,2.8,1.31,5.95,1.43,8.62,3.48s6.18,3,9.52,4.48a15.37,15.37,0,0,0-1.82,3.07c-.38,1.14-.18,2.46-.4,3.68-.28,1.47-.22,2.68,1.68,3.26,2.08-1.94,3.19-4.56,4.32-7.32,2.77,1.43,4,5,7.59,5.39,1.85-1.8.82-4.06.07-5.61s-2.83-2.75-4.74-4.47c4.53-2,8.66-4.22,13.06-5.56,1.85-.56,4.46.32,6.37,1.26,4.75,2.37,9.54,4.31,15.21,3.87-.16.65-.13,1.22-.38,1.41-2.5,2-2.47,5.16-3.84,7.67a2.38,2.38,0,0,0,.54,2,1.84,1.84,0,0,0,1.76-.12c1.46-1.2,2.78-2.57,4.41-4.13l5.6,4.81c2.23-2.4,1.94-4.93-3.54-11.7L544.5,30c.47,1.38.9,3,1.57,4.53.8,1.8,1.11,4,3.11,5,3.5,1.71,7.05,3.33,11.14,2.19,1.39-.38,2.82-.58,4.38-.89,3.47-3.93,6.17-8.47,5.84-14.53a13,13,0,0,1,2.86.43,70.23,70.23,0,0,1,9.91,5.45c2.49,1.54,5.37,2.44,8.43,3.77-.12,2.52-4.18,5.29-.53,8.85l4.53-5.65a33.77,33.77,0,0,1,3.78,2.27c2.33,1.86,2.87,2,5.61.35-1.06-3.91-.94-3.94-5.61-7.63C603,32.31,606.34,30,610,28.81c2.93-1,6.22-.16,9.29.68,2.77.76,5.6,1.25,7.65,3.62.4.45,1.5.28,2.28.39l4,.52c-2.64,3.17-4.57,6.15-2.66,10,2.39.63,3-1.23,3.73-2.63,2.25-4.2,2.2-4.23,5.44-.49a6.35,6.35,0,0,0,3.94,2.45c1.44-4.7-1.89-7.4-4.37-10.31l6.27-5a29.34,29.34,0,0,0,.07,5.24,10.77,10.77,0,0,0,1.8,4.23,9.73,9.73,0,0,0,3.72,3.19,21.62,21.62,0,0,0,7.13,1.75c1.63.08,3.38-.88,5-1.61.88-.41,1.46-1.43,2.3-2,3.21-2.12,4.4-5.21,4.52-8.89a21.07,21.07,0,0,1,.4-2.65A24.1,24.1,0,0,1,681.76,31c3,1.7,5.72,4,9.41,4-.46,2.37-.71,4.47-1.31,6.47s.35,2.43,1.83,2.65l4.76-6.53,6.19,5.07,5.28.67c-.1-5-3.21-7.56-6.9-9.68,2.22-3.35,5.68-3.21,8.85-4.1,4-1.12,7.45.1,10.67,1.85a17.32,17.32,0,0,0,4.62,1.77c2.05.44,4.18.53,6.76.82-1.61,2.17-3,4-4.29,5.81.37,1.39.71,2.67,1,3.89,4,2,4.2-3.4,7.12-3.58,2.8,1.63,1.86,4.17,1.79,6.76l-7.19.45c-4,.24-8.06.73-12.08.67-6.4-.1-12.78-.66-19.18-.83-5.5-.16-11-.08-16.52-.06-3.15,0-6.31.2-9.46.17-5.64,0-11.29-.31-16.94-.25-10.73.1-21.45.48-32.18.54-11.64.06-23.27.39-34.91-.09-5.06-.21-10.14-.11-15.21,0-2.9.09-5.8.54-8.69.89-2.25.26-4.47.55-6.55-.74a2.16,2.16,0,0,0-1.31-.23c-3.6.38-7.21.82-10.82,1.2a3.14,3.14,0,0,1-1.95-.15c-1.86-1.37-3.93-.65-5.87-.69-5.73-.14-11.48,0-17.22,0-1.46,0-2.94-.17-4.39-.06-3.61.28-7.21.75-10.82,1-1.18.08-2.39-.46-3.59-.47q-13.56-.09-27.11-.06-18,0-35.95.12H434a19,19,0,0,1,2.46-2.73,10,10,0,0,0,4-6.66c.67-4.46,2.08-8.74.92-13.61-1-4.18-3.6-6.76-5.95-10.28,1.64-.11,3.23-.27,4.82-.34,7.18-.27,14.36-.58,21.54-.76,3.09-.08,6.19.19,9.28.14,3.57,0,7.15-.45,10.71-.38,3.11,0,6.21.54,9.31.84a10.66,10.66,0,0,0,1.26.08c6.52-.14,13-.31,19.57-.45,7.93-.17,15.87-.35,23.81-.48,4.15-.07,8.31.13,12.45-.11,8-.48,16,.08,24-.13s15.82-.44,23.73-.4c6.72,0,13.45.42,20.17.64,7.85.27,15.69-.07,23.54-.1,5.47,0,10.94.09,16.42,0,8.31,0,16.63-.22,25-.28,5.17,0,10.36-.27,15.5.18,3.35.29,6.6-.35,9.91-.13s6.77.13,10.15.06,6.75-.44,10.12-.42,7,.35,10.74.56a22.19,22.19,0,0,1,.26,2.51c0,4,0,7.92,0,11.88,0,1.47-.58,2.07-2.05,2.54-4.74,1.53-9,0-13.23-1.72-1.32-.51-2.6-1.13-4.69-2.06,6.12-.85,8.1-5.51,11.21-8.66-.42-2-1.56-2.25-2.88-1.72-2.68,1.08-5.61,1.74-7.55,4.57l-5.66-4.67c-1.89,1.84-2.24,4.09-1,6a24.93,24.93,0,0,1,1.59,2.47.66.66,0,0,1-.14.48,97.69,97.69,0,0,0-9.68,2.39,23.61,23.61,0,0,0-5.72,3.43c-3.3,2.38-8.46,1.52-12.58-1.18l-4.2-2.73c2.37-3.24,5.39-6.28,7.06-10.5-4.35-.68-6.2,2.41-8.54,4.7l-5.53-4.93c-1.68,3.44,1.28,5.72,1.32,8.67l-5.92-.75c-.85-3-3.23-4.33-6.13-5.73-5.55-2.7-10.12-.5-14.84,1.75A4,4,0,0,0,647,22.08c-2,3.82-5.48,5.89-9,7.94-3.22,1.9-6.52,1.23-9.73-.2-2.3-1-4.59-2.11-7-3.2,4.11-1.87,4.88-6.08,6.35-9.85-1.93-1.44-3.66-1.28-5.36.62-1.26,1.4-2.45,2.86-3.81,4.46A12.57,12.57,0,0,1,617,19.34c-.83-2.77-3.46-2.08-5.32-2.83-.09,0-1,1.2-.91,1.66a46.39,46.39,0,0,0,1.89,5c.34.8.77,1.57,1.34,2.7-5-.71-8.57,1.93-12.28,3.94-6.92,3.75-13.84,3.09-19.68-2.36,2.3-3.52,5.65-6.58,5.89-11.73-.28-.6-1-1-2.09,0-1.93,1.68-3.83,3.39-5.86,5.19l-4.72-5.14c-1.61.42-2.06,1.13-1.31,2.71a42.89,42.89,0,0,1,1.77,5.14h-5.62l-6.63-5.85c-.25-.22-.53-.59-.79-.58-3.1.08-6.35-1.07-9.25.48a17.42,17.42,0,0,0-7,6.4c-2.26,3.68-5.87,6.6-11.11,6.24-4.11-.28-8.26.09-11.94-2.83,2.72-2.61,6-4.89,6-9.64-2.59-.47-4.6.77-6.53,2.24-.86.67-1.66,1.41-2.43,2.07-2.64-.91-3.1-5.06-6.78-3.78-.86,2.34.52,4.16,1.74,6.22a4.44,4.44,0,0,1-1.27.54c-3.93.17-7.13,2.18-10.54,3.85a49.56,49.56,0,0,1-10.17,3.45c-1.22.29-2.83-.54-4.11-1.17a56.67,56.67,0,0,1-4.88-2.94c1.33-3.63,2.56-7,3.84-10.49-3.66-1.85-4.46,2.1-6.57,3-2.13-1.19-3.5-3.93-7-2.79.61,1.48,1.13,2.84,1.74,4.16a18.85,18.85,0,0,0,1.72,2.78C478.3,25.07,478.35,25,478.35,25Z"/><path class="cls-2" d="M430,20.07a4.11,4.11,0,0,1-1.68,4.33c-.43.31-.62.93-1.13,1.74l5.27.58c1.29,3.93,1.19,4.16-3,6.84.65.86,1.29,1.72,1.93,2.59,1.11,1.5,1.29,3.78.36,4.58-1.63,1.4-4.55,1.7-6,.58-.75-.59-1.45-1.24-2.2-1.9-2.23,1.92-2,6.28-6.27,5.27-2.14-1.81-.69-4.64-1.73-7-1.84,2.68-4.35,3.13-7.1,3-.93-3-1.32-2.33,1.92-6.68l-6.25-1c.65-4.79.65-4.79,5.15-5.35-.43-1.9-.85-3.77-1.32-5.87,2.51-4.35,3.76-4.2,8.55,1.76-.18-2-.35-3.46-.42-4.92,0-1.05.1-2.09,1.46-2.26,1.16-.15,2.34-.13,2.95,1.09.49,1,.81,2,1.37,3.52,1-.72,1.78-1.22,2.49-1.83C426.66,17.23,428,17.38,430,20.07Z"/><path class="cls-2" d="M660.15,23.55a6.23,6.23,0,0,0,.09.94C661,28,661,28,664.64,28c.77,2.48.54,3.51-1.56,4.21a7.49,7.49,0,0,0-4.65,4A3.35,3.35,0,0,1,657,37.59c-1.74.88-2.82.21-2.85-1.75,0-.88.13-1.77.2-2.74a6.83,6.83,0,0,1-2.26-.67,5,5,0,0,1-1.72-2.16,1.84,1.84,0,0,1,1.23-2.44c.31-.12.56-.4.87-.5,1.77-.57,3.1-1.39,3.52-3.51.16-.78,1.57-1.46,2.54-1.85C658.88,21.85,659.62,22.81,660.15,23.55Z"/><path class="cls-2" d="M464.15,32.49c-2.38.38-2.29,2.5-3.17,3.81-.65,1-1.06,2.34-2.36,1.76-.79-.35-1.25-1.64-1.64-2.59a8.07,8.07,0,0,1-.25-2.27,12,12,0,0,0-2.71-.71,1.6,1.6,0,0,1-1.77-1.57,2.71,2.71,0,0,1,1.16-1.87,14,14,0,0,1,3-1.13c0-1,0-2,0-3a2,2,0,0,1,2-2.24c1.21,0,2.06.52,2,2.08s1,2.14,2.35,2.33a6.25,6.25,0,0,1,4.59,2.93C467.13,31.92,465.69,32.09,464.15,32.49Z"/><path class="cls-2" d="M386.25,31.79c-1.53.89-3.46,1-3.06,3.44.11.64-1.21,1.51-2,2.47l-3-.73c.78-3.11.3-4-2.35-4.31-1.7-.2-2.42-.95-2.12-2.65.15-.88.24-1.77.38-2.84l3.56-.77c.18-1.23.36-2.42.6-4l3.41.86c.29,1.84.52,3.37.79,5.11,1.46-.12,2.72-1.7,4,0A2.45,2.45,0,0,1,386.25,31.79Z"/><path class="cls-2" d="M558.48,37.31c-1.21-.2-2.15-.44-3.37-.74.52-1.2.89-2.06,1.43-3.33a12,12,0,0,0-3.33-1.11c-1.63,0-2.35-.5-2-2.18.36-1.88,1.38-2.63,3-2.14.42.13.78.47,1.2.61a5.43,5.43,0,0,0,1.26,0A6.13,6.13,0,0,0,557,26.3c-.69-3.32-.15-4,3.66-3.66-.24,1.19-.47,2.33-.77,3.78l5.34.89c-.23,1.58-.43,3-.65,4.39l-3.5.33C559.63,33.55,561.58,36.49,558.48,37.31Z"/><path class="cls-2" d="M176.14,28.09c1.51-.38,2.79-.64,4.37-1a10.05,10.05,0,0,1-.9-2.09c-.16-1-.22-2.32,1.12-2.35A2.93,2.93,0,0,1,183,24.13a18.91,18.91,0,0,1,.75,4.24l4.74.37c.87,3-.45,4.62-3.33,4.36-1.41-.13-1.94.41-1.7,1.76.35,2,0,2.69-1.49,3-1.74.38-2.74-.26-3.06-2.13-.22-1.32-.28-2.68-.41-4-1-.38-2.13-.53-2.77-1.18C175.35,30.21,175.81,29,176.14,28.09Z"/><path class="cls-2" d="M282.79,25.92c1.55,1,2.31,3.23,4.79,1.84.09,1.51.15,2.6.22,3.83-.83.21-1.47.34-2.1.54-1.42.44-2.78.89-2.89,2.79a3.28,3.28,0,0,1-.85,1.81,2,2,0,0,1-1.47.5c-.29,0-.74-.56-.8-.91-.24-1.44-.35-2.89-.53-4.55-1.94.48-3.62.25-4.82-1.48-.2-1.69,1-2.48,2.3-2.77,1.87-.39,2.81-1,2.28-3.18A2.65,2.65,0,0,1,280,22.15a3,3,0,0,1,2.47-.09c.37.16.37,1.33.41,2C282.92,24.63,282.75,25.17,282.79,25.92Z"/><path class="cls-2" d="M579.76,51.9a26.49,26.49,0,0,0-3.07-.56l-.89.49Z"/><path class="cls-2" d="M264.58,24.49c-.1.27-.36.39-.61.52a2.6,2.6,0,0,1,.07-.84C264.24,24.15,264.34,24.25,264.58,24.49Z"/><path class="cls-2" d="M713.56,25a.51.51,0,0,1-.2.41C713.31,25.23,713.47,25.06,713.56,25Z"/><path class="cls-2" d="M478.3,25.05a6.35,6.35,0,0,0-.6.36.78.78,0,0,1,.43-.37C478.35,25,478.3,25.07,478.3,25.05Z"/></svg>